<svg xmlns="http://www.w3.org/2000/svg" width="18.65" height="24.858" viewBox="0 0 18.65 24.858">
  <path id="Icon_awesome-calendar-alt" data-name="Icon awesome-calendar-alt" d="M0,22.527a2.184,2.184,0,0,0,2,2.33H16.652a2.184,2.184,0,0,0,2-2.33V9.322H0Zm13.321-9.516a.548.548,0,0,1,.5-.583h1.665a.548.548,0,0,1,.5.583v1.942a.548.548,0,0,1-.5.583H13.821a.548.548,0,0,1-.5-.583Zm0,6.214a.548.548,0,0,1,.5-.583h1.665a.548.548,0,0,1,.5.583v1.942a.548.548,0,0,1-.5.583H13.821a.548.548,0,0,1-.5-.583ZM7.993,13.012a.548.548,0,0,1,.5-.583h1.665a.548.548,0,0,1,.5.583v1.942a.548.548,0,0,1-.5.583H8.492a.548.548,0,0,1-.5-.583Zm0,6.214a.548.548,0,0,1,.5-.583h1.665a.548.548,0,0,1,.5.583v1.942a.548.548,0,0,1-.5.583H8.492a.548.548,0,0,1-.5-.583ZM2.664,13.012a.548.548,0,0,1,.5-.583H4.829a.548.548,0,0,1,.5.583v1.942a.548.548,0,0,1-.5.583H3.164a.548.548,0,0,1-.5-.583Zm0,6.214a.548.548,0,0,1,.5-.583H4.829a.548.548,0,0,1,.5.583v1.942a.548.548,0,0,1-.5.583H3.164a.548.548,0,0,1-.5-.583ZM16.652,3.107h-2V.777A.73.73,0,0,0,13.988,0H12.655a.73.73,0,0,0-.666.777v2.33H6.661V.777A.73.73,0,0,0,5.995,0H4.662A.73.73,0,0,0,4,.777v2.33H2a2.184,2.184,0,0,0-2,2.33v2.33H18.65V5.438A2.184,2.184,0,0,0,16.652,3.107Z" fill="#eb3939"/>
</svg>
