<svg xmlns="http://www.w3.org/2000/svg" width="18.65" height="18.649" viewBox="0 0 18.65 18.649">
  <path id="Icon_ionic-ios-call" data-name="Icon ionic-ios-call" d="M22.6,19.1a15.665,15.665,0,0,0-3.272-2.19c-.981-.471-1.34-.461-2.034.039-.578.418-.952.806-1.617.66a9.644,9.644,0,0,1-3.248-2.4,9.575,9.575,0,0,1-2.4-3.248c-.141-.67.248-1.039.66-1.617.5-.694.515-1.054.039-2.034A15.355,15.355,0,0,0,8.536,5.04c-.714-.714-.874-.558-1.267-.418a7.211,7.211,0,0,0-1.16.617A3.5,3.5,0,0,0,4.715,6.71c-.277.6-.6,1.709,1.034,4.612a25.736,25.736,0,0,0,4.525,6.035h0l0,0,0,0h0a25.837,25.837,0,0,0,6.035,4.525c2.9,1.631,4.015,1.311,4.612,1.034A3.441,3.441,0,0,0,22.4,21.532a7.211,7.211,0,0,0,.617-1.16C23.16,19.979,23.32,19.818,22.6,19.1Z" transform="translate(-4.49 -4.502)" fill="#eb3939"/>
</svg>
