<svg xmlns="http://www.w3.org/2000/svg" width="18.65" height="18.65" viewBox="0 0 18.65 18.65">
  <path id="Icon_metro-location" data-name="Icon metro-location" d="M17.68,1.928c-5.15,0-9.325,2.609-9.325,5.828,0,5.828,9.325,12.822,9.325,12.822S27,13.584,27,7.756c0-3.219-4.175-5.828-9.325-5.828Zm0,9.4c-3.154,0-5.712-1.6-5.712-3.57s2.557-3.57,5.712-3.57,5.712,1.6,5.712,3.57S20.834,11.326,17.68,11.326Zm-3.613-3.57c0-1.247,1.618-2.258,3.613-2.258s3.613,1.011,3.613,2.258-1.618,2.258-3.613,2.258S14.066,9,14.066,7.756Z" transform="translate(-8.355 -1.928)" fill="#eb3939"/>
</svg>
