<svg xmlns="http://www.w3.org/2000/svg" width="18.643" height="18.65" viewBox="0 0 18.643 18.65">
  <path id="Icon_material-more" data-name="Icon material-more" d="M17.1,0H5.44A1.43,1.43,0,0,0,4.2.911L0,9.322l4.2,8.4a1.515,1.515,0,0,0,1.29.922H17.1c.855,0,1.554-.932,1.554-2.071V2.071C18.65.932,17.951,0,17.1,0ZM6.994,10.875c-.645,0-1.166-.694-1.166-1.554s.521-1.554,1.166-1.554,1.166.694,1.166,1.554S7.639,10.875,6.994,10.875Zm3.885,0c-.645,0-1.166-.694-1.166-1.554s.521-1.554,1.166-1.554,1.166.694,1.166,1.554S11.524,10.875,10.879,10.875Zm3.885,0c-.645,0-1.166-.694-1.166-1.554s.521-1.554,1.166-1.554,1.166.694,1.166,1.554S15.41,10.875,14.765,10.875Z" transform="translate(18.643) rotate(90)" fill="#eb3939"/>
</svg>
