<svg xmlns="http://www.w3.org/2000/svg" width="38.717" height="7.731" viewBox="0 0 38.717 7.731">
  <g id="Group_111" data-name="Group 111" transform="translate(585.15 710.999)">
    <g id="Group_108" data-name="Group 108" transform="translate(-585.15 -710.999)">
      <path id="Icon_ionic-ios-star" data-name="Icon ionic-ios-star" d="M10.259,6.052H7.525L6.695,3.573a.3.3,0,0,0-.565,0L5.3,6.052H2.547a.3.3,0,0,0-.3.3.22.22,0,0,0,.005.05.286.286,0,0,0,.125.21L4.627,8.192,3.765,10.7a.3.3,0,0,0,.1.334.288.288,0,0,0,.167.073.366.366,0,0,0,.186-.067L6.412,9.477,8.6,11.04a.348.348,0,0,0,.186.067.267.267,0,0,0,.166-.073.293.293,0,0,0,.1-.334L8.2,8.193l2.228-1.6.054-.047a.284.284,0,0,0-.219-.5Z" transform="translate(-2.25 -3.376)" fill="#f02525"/>
      <path id="Icon_ionic-ios-star-2" data-name="Icon ionic-ios-star" d="M10.259,6.052H7.525L6.695,3.573a.3.3,0,0,0-.565,0L5.3,6.052H2.547a.3.3,0,0,0-.3.3.22.22,0,0,0,.005.05.286.286,0,0,0,.125.21L4.627,8.192,3.765,10.7a.3.3,0,0,0,.1.334.288.288,0,0,0,.167.073.366.366,0,0,0,.186-.067L6.412,9.477,8.6,11.04a.348.348,0,0,0,.186.067.267.267,0,0,0,.166-.073.293.293,0,0,0,.1-.334L8.2,8.193l2.228-1.6.054-.047a.284.284,0,0,0-.219-.5Z" transform="translate(28.142 -3.376)" fill="#f02525"/>
      <path id="Icon_ionic-ios-star-3" data-name="Icon ionic-ios-star" d="M10.259,6.052H7.525L6.695,3.573a.3.3,0,0,0-.565,0L5.3,6.052H2.547a.3.3,0,0,0-.3.3.22.22,0,0,0,.005.05.286.286,0,0,0,.125.21L4.627,8.192,3.765,10.7a.3.3,0,0,0,.1.334.288.288,0,0,0,.167.073.366.366,0,0,0,.186-.067L6.412,9.477,8.6,11.04a.348.348,0,0,0,.186.067.267.267,0,0,0,.166-.073.293.293,0,0,0,.1-.334L8.2,8.193l2.228-1.6.054-.047a.284.284,0,0,0-.219-.5Z" transform="translate(7.792 -3.376)" fill="#f02525"/>
      <path id="Icon_ionic-ios-star-4" data-name="Icon ionic-ios-star" d="M10.259,6.052H7.525L6.695,3.573a.3.3,0,0,0-.565,0L5.3,6.052H2.547a.3.3,0,0,0-.3.3.22.22,0,0,0,.005.05.286.286,0,0,0,.125.21L4.627,8.192,3.765,10.7a.3.3,0,0,0,.1.334.288.288,0,0,0,.167.073.366.366,0,0,0,.186-.067L6.412,9.477,8.6,11.04a.348.348,0,0,0,.186.067.267.267,0,0,0,.166-.073.293.293,0,0,0,.1-.334L8.2,8.193l2.228-1.6.054-.047a.284.284,0,0,0-.219-.5Z" transform="translate(17.835 -3.376)" fill="#f02525"/>
    </g>
  </g>
</svg>
