<svg xmlns="http://www.w3.org/2000/svg" width="105.128" height="21.195" viewBox="0 0 105.128 21.195">
  <g id="Group_113" data-name="Group 113" transform="translate(585.15 638.937)">
    <path id="Icon_ionic-ios-star-outline" data-name="Icon ionic-ios-star-outline" d="M24.116,10.681H16.653L14.385,3.913a.822.822,0,0,0-1.542,0l-2.268,6.768H3.062a.814.814,0,0,0-.812.812.6.6,0,0,0,.015.137.78.78,0,0,0,.34.573l6.134,4.322L6.385,23.369a.814.814,0,0,0,.279.913.785.785,0,0,0,.457.2,1,1,0,0,0,.507-.183l5.986-4.267L19.6,24.3a.951.951,0,0,0,.507.183.729.729,0,0,0,.452-.2.8.8,0,0,0,.279-.913l-2.354-6.844,6.083-4.363.147-.127a.851.851,0,0,0,.264-.543A.859.859,0,0,0,24.116,10.681Zm-6.453,4.693a1.425,1.425,0,0,0-.517,1.613l1.527,4.449a.2.2,0,0,1-.309.233l-3.927-2.8a1.418,1.418,0,0,0-.827-.264,1.391,1.391,0,0,0-.822.264l-3.927,2.8a.2.2,0,0,1-.309-.233l1.527-4.449a1.43,1.43,0,0,0-.523-1.623l-4.109-2.9a.2.2,0,0,1,.117-.37H10.57a1.419,1.419,0,0,0,1.344-.969l1.5-4.475a.2.2,0,0,1,.386,0l1.5,4.475a1.419,1.419,0,0,0,1.344.969h4.936a.2.2,0,0,1,.117.365Z" transform="translate(-505.001 -642.312)" fill="#f02525"/>
    <g id="Group_110" data-name="Group 110" transform="translate(-585.15 -638.846)">
      <path id="Icon_ionic-ios-star" data-name="Icon ionic-ios-star" d="M24.116,10.681H16.653L14.385,3.913a.822.822,0,0,0-1.542,0l-2.268,6.768H3.062a.814.814,0,0,0-.812.812.6.6,0,0,0,.015.137.78.78,0,0,0,.34.573l6.134,4.322L6.385,23.369a.814.814,0,0,0,.279.913.785.785,0,0,0,.457.2,1,1,0,0,0,.507-.183l5.986-4.267L19.6,24.3a.951.951,0,0,0,.507.183.729.729,0,0,0,.452-.2.8.8,0,0,0,.279-.913l-2.354-6.844,6.083-4.363.147-.127a.851.851,0,0,0,.264-.543A.859.859,0,0,0,24.116,10.681Z" transform="translate(-2.25 -3.375)" fill="#f02525"/>
      <path id="Icon_ionic-ios-star-2" data-name="Icon ionic-ios-star" d="M24.116,10.681H16.653L14.385,3.913a.822.822,0,0,0-1.542,0l-2.268,6.768H3.062a.814.814,0,0,0-.812.812.6.6,0,0,0,.015.137.78.78,0,0,0,.34.573l6.134,4.322L6.385,23.369a.814.814,0,0,0,.279.913.785.785,0,0,0,.457.2,1,1,0,0,0,.507-.183l5.986-4.267L19.6,24.3a.951.951,0,0,0,.507.183.729.729,0,0,0,.452-.2.8.8,0,0,0,.279-.913l-2.354-6.844,6.083-4.363.147-.127a.851.851,0,0,0,.264-.543A.859.859,0,0,0,24.116,10.681Z" transform="translate(25.168 -3.375)" fill="#f02525"/>
      <path id="Icon_ionic-ios-star-3" data-name="Icon ionic-ios-star" d="M24.116,10.681H16.653L14.385,3.913a.822.822,0,0,0-1.542,0l-2.268,6.768H3.062a.814.814,0,0,0-.812.812.6.6,0,0,0,.015.137.78.78,0,0,0,.34.573l6.134,4.322L6.385,23.369a.814.814,0,0,0,.279.913.785.785,0,0,0,.457.2,1,1,0,0,0,.507-.183l5.986-4.267L19.6,24.3a.951.951,0,0,0,.507.183.729.729,0,0,0,.452-.2.8.8,0,0,0,.279-.913l-2.354-6.844,6.083-4.363.147-.127a.851.851,0,0,0,.264-.543A.859.859,0,0,0,24.116,10.681Z" transform="translate(52.587 -3.375)" fill="#f02525"/>
    </g>
  </g>
</svg>
