<svg xmlns="http://www.w3.org/2000/svg" width="18.65" height="20.189" viewBox="0 0 18.65 20.189">
  <path id="Icon_awesome-twitter" data-name="Icon awesome-twitter" d="M16.733,8.412c.012.221.012.442.012.662,0,6.735-3.846,14.5-10.875,14.5A8.965,8.965,0,0,1,0,21.283a5.955,5.955,0,0,0,.923.063,6.558,6.558,0,0,0,4.745-2.177c-1.68-.047-3.089-1.514-3.574-3.533a3.649,3.649,0,0,0,.722.079,3.1,3.1,0,0,0,1.006-.173c-1.751-.473-3.065-2.524-3.065-5v-.063a3.164,3.164,0,0,0,1.728.647,5.691,5.691,0,0,1-1.7-4.243A6.391,6.391,0,0,1,1.3,4.311C3.183,7.4,6.012,9.422,9.183,9.642a7.6,7.6,0,0,1-.095-1.167c0-2.808,1.7-5.095,3.822-5.095A3.457,3.457,0,0,1,15.7,4.99a6.52,6.52,0,0,0,2.426-1.23,5.08,5.08,0,0,1-1.68,2.808,6.227,6.227,0,0,0,2.2-.789,10.2,10.2,0,0,1-1.917,2.634Z" transform="translate(0 -3.381)" fill="#399eeb"/>
</svg>
